<svg width="512" height="512" viewBox="0 0 512 512" fill="none" xmlns="http://www.w3.org/2000/svg">
<g clip-path="url(#clip0)">
<path d="M502 1.90735e-06H137C131.478 1.90735e-06 127 4.477 127 10C127 15.523 131.478 20 137 20H164V164H20V20H47C52.522 20 218.25 23.25 180.25 10C161.5 -6 52.522 1.90735e-06 47 1.90735e-06H10C4.478 1.90735e-06 0 4.477 0 10V502C0 507.523 4.478 512 10 512H502C507.522 512 512 507.523 512 502V10C512 4.477 507.522 1.90735e-06 502 1.90735e-06ZM328 348V492H184V348H328ZM184 328V184H328V328H184ZM348 184H492V328H348V184ZM492 164H348V20H492V164ZM184 20H328V164H184V20ZM164 184V328H20V184H164ZM20 348H164V492H20V348ZM348 492V348H492V492H348Z" fill="#0077B6"/>
<path d="M83.45 225.937H90.55V295.937C90.55 301.46 95.028 305.937 100.55 305.937C106.072 305.937 110.55 301.46 110.55 295.937V215.937C110.55 210.414 106.072 205.937 100.55 205.937H83.45C77.928 205.937 73.45 210.414 73.45 215.937C73.45 221.46 77.928 225.937 83.45 225.937Z" fill="#0077B6"/>
<path d="M114.005 370H69.9951C64.4731 370 59.9951 374.477 59.9951 380C59.9951 385.523 64.4731 390 69.9951 390H98.6851L69.6831 455.976C67.4601 461.032 69.7571 466.933 74.8131 469.155C76.1231 469.731 77.4881 470.003 78.8331 470.003C82.6791 470.003 86.3461 467.772 87.9921 464.025L123.159 384.025C124.518 380.933 124.225 377.363 122.379 374.534C120.533 371.705 117.383 370 114.005 370Z" fill="#0077B6"/>
<path d="M278.188 248.299C281.213 243.952 282.993 238.678 282.993 232.993C282.993 218.179 270.941 206.127 256.127 206.127C241.313 206.127 229.261 218.179 229.261 232.993C229.261 238.678 231.041 243.952 234.066 248.299C227.277 254.371 222.994 263.19 222.994 272.993C222.994 291.264 237.857 306.127 256.128 306.127C274.399 306.127 289.262 291.263 289.262 272.993C289.261 263.189 284.978 254.371 278.188 248.299ZM249.261 232.993C249.261 229.207 252.341 226.127 256.127 226.127C259.913 226.127 262.993 229.207 262.993 232.993C262.993 236.779 259.913 239.859 256.127 239.859C252.341 239.859 249.261 236.779 249.261 232.993ZM256.127 286.127C248.885 286.127 242.993 280.235 242.993 272.993C242.993 265.751 248.885 259.859 256.127 259.859C263.369 259.859 269.261 265.751 269.261 272.993C269.261 280.235 263.369 286.127 256.127 286.127Z" fill="#0077B6"/>
<path d="M256.127 75.104C255.521 75.104 254.919 75.122 254.322 75.154C260.789 65.311 267.536 60.049 267.767 59.872C272.169 56.569 273.077 50.326 269.788 45.905C266.492 41.473 260.225 40.554 255.797 43.849C254.651 44.702 227.852 65.052 223.16 103.232C222.888 104.945 222.743 106.7 222.743 108.488C222.743 126.896 237.72 141.873 256.128 141.873C274.536 141.873 289.513 126.896 289.513 108.488C289.513 90.08 274.535 75.104 256.127 75.104ZM256.127 121.873C248.746 121.873 242.742 115.869 242.742 108.488C242.742 101.107 248.746 95.103 256.127 95.103C263.508 95.103 269.512 101.107 269.512 108.488C269.512 115.869 263.508 121.873 256.127 121.873Z" fill="#0077B6"/>
<path d="M420.114 306.127C412.747 306.127 405.749 303.818 399.83 299.429C395.394 296.139 394.465 289.876 397.755 285.44C401.045 281.004 407.308 280.075 411.744 283.365C414.264 285.234 417.259 286.189 420.423 286.124C427.77 285.976 433.823 280.121 434.204 272.793C434.407 268.878 433.038 265.161 430.349 262.329C427.659 259.495 424.028 257.933 420.127 257.933C414.214 257.933 411.923 258.772 408.853 260.154C408.541 260.294 408.339 260.393 408.27 260.428C404.908 262.121 400.857 261.795 397.824 259.564C394.791 257.334 393.246 253.6 393.861 249.885L399.725 214.491C400.525 209.665 404.699 206.126 409.59 206.126H439.192C444.714 206.126 449.192 210.603 449.192 216.126C449.192 221.649 444.714 226.126 439.192 226.126H418.07L416.095 238.046C417.349 237.971 418.687 237.933 420.127 237.933C429.43 237.933 438.442 241.806 444.853 248.558C451.356 255.407 454.667 264.382 454.177 273.83C453.255 291.579 438.606 305.761 420.825 306.12C420.589 306.125 420.351 306.127 420.114 306.127Z" fill="#0077B6"/>
<path d="M316.701 268.98C316.333 269.594 316.169 270.309 316.232 271.022L318.002 290.946C318.133 292.409 317.306 293.789 315.955 294.365L297.552 302.205C296.894 302.485 296.341 302.968 295.973 303.581L285.694 320.741C284.94 322 283.46 322.631 282.029 322.303L262.532 317.83C261.835 317.669 261.104 317.734 260.446 318.015L242.044 325.856C240.693 326.431 239.125 326.072 238.16 324.965L225.016 309.886C224.546 309.347 223.917 308.97 223.219 308.81L203.723 304.336C202.292 304.008 201.235 302.795 201.105 301.333L199.335 281.408C199.271 280.695 198.984 280.02 198.513 279.48L185.371 264.401C184.407 263.294 184.264 261.692 185.019 260.432L195.298 243.273C195.666 242.659 195.829 241.944 195.767 241.231L193.996 221.307C193.866 219.844 194.693 218.464 196.044 217.888L214.446 210.048C215.105 209.767 215.658 209.286 216.026 208.671L226.304 191.512C227.059 190.253 228.539 189.622 229.97 189.951L249.466 194.424C250.164 194.585 250.894 194.519 251.553 194.239L269.955 186.398C271.306 185.823 272.874 186.182 273.839 187.289L286.982 202.368C287.453 202.907 288.082 203.284 288.78 203.444L308.276 207.918C309.707 208.246 310.764 209.459 310.894 210.922L312.664 230.847C312.727 231.559 313.015 232.234 313.485 232.774L326.629 247.852C327.594 248.959 327.736 250.562 326.981 251.821L316.701 268.98Z" fill="#F9AB55"/>
<path d="M316.701 268.98C316.333 269.594 316.169 270.309 316.232 271.022L318.002 290.946C318.133 292.409 317.306 293.789 315.955 294.364L297.553 302.205C296.894 302.485 296.341 302.967 295.973 303.581L291.057 311.788C245.32 291.13 218.671 240.768 229.593 189.886C229.719 189.9 229.845 189.922 229.97 189.951L249.466 194.424C250.164 194.585 250.894 194.519 251.553 194.239L269.955 186.398C271.306 185.823 272.874 186.182 273.839 187.289L286.982 202.368C287.453 202.907 288.082 203.284 288.78 203.444L308.276 207.918C309.707 208.246 310.764 209.458 310.894 210.921L312.664 230.846C312.727 231.559 313.015 232.234 313.485 232.773L326.629 247.852C327.594 248.959 327.736 250.561 326.981 251.82L316.701 268.98Z" fill="#F3B97A" fill-opacity="0.61"/>
<path d="M263.439 303.126C263.439 306.044 261.074 308.409 258.156 308.409C255.239 308.409 252.874 306.043 252.874 303.126C252.874 300.21 255.239 297.844 258.156 297.844C261.074 297.843 263.439 300.209 263.439 303.126ZM285.555 235.199C284.814 220.919 273.026 209.508 258.72 209.22C244.805 208.93 232.901 219.089 230.984 232.831C230.808 234.09 230.72 235.374 230.72 236.65C230.72 239.536 233.059 241.875 235.945 241.875C238.83 241.875 241.169 239.536 241.169 236.65C241.169 235.855 241.224 235.055 241.334 234.274C242.52 225.773 249.9 219.496 258.51 219.666C267.366 219.845 274.662 226.905 275.121 235.739C275.365 240.453 273.716 244.929 270.475 248.342C267.233 251.756 262.858 253.638 258.157 253.638C255.271 253.638 252.932 255.977 252.932 258.863V282.089C252.932 284.975 255.271 287.314 258.157 287.314C261.042 287.314 263.382 284.975 263.382 282.089V263.596C268.957 262.532 274.042 259.761 278.054 255.538C283.285 250.027 285.949 242.803 285.555 235.199Z" fill="white"/>
</g>
<defs>
<clipPath id="clip0">
<rect width="512" height="512" fill="white"/>
</clipPath>
</defs>
</svg>
