<svg width="101" height="101" viewBox="0 0 101 101" fill="none" xmlns="http://www.w3.org/2000/svg">
<path d="M50.4999 0.73407C22.8857 0.73407 0.5 23.1198 0.5 50.734C0.5 78.3481 22.8857 100.734 50.4999 100.734C78.1141 100.734 100.5 78.3481 100.5 50.734C100.47 23.1321 78.1019 0.763576 50.4999 0.73407ZM71.5568 52.3271C71.2107 53.0214 70.648 53.5843 69.9534 53.9305V53.9482L41.3821 68.234C39.6176 69.1156 37.4726 68.4002 36.5908 66.6357C36.3401 66.1341 36.211 65.5804 36.2141 65.0197V36.4484C36.2133 34.4759 37.8114 32.8763 39.7839 32.8752C40.3387 32.875 40.8859 33.0039 41.3821 33.2519L69.9534 47.5377C71.7188 48.4174 72.4368 50.5617 71.5568 52.3271Z" fill="#F9AB55"/>
</svg>
