<svg width="316" height="132" viewBox="0 0 316 132" fill="none" xmlns="http://www.w3.org/2000/svg">
<path d="M276.172 106.099C177.019 106.099 83.4428 69.6304 9.1991 1.38891L9.85741 0.672516C93.7627 77.8302 202.451 114.24 315.903 103.185L316 104.153C302.647 105.45 289.371 106.099 276.172 106.099Z" fill="#999999"/>
<path fill-rule="evenodd" clip-rule="evenodd" d="M19.5481 4.00279L0.0505371 26.5692C5.15243 27.6729 7.68885 28.1666 12.752 29.0669C14.6882 34.1591 15.7434 36.7052 17.8926 41.7684L36.151 18.1371C29.3743 12.6963 26.0441 9.86949 19.5481 4.00279Z" fill="#0077B6"/>
<path d="M44.8253 24.9138L27.2252 49.0485C32.3658 49.6778 34.97 49.9489 40.0332 50.3942C42.376 55.2347 43.6055 57.6937 46.1419 62.5342L62.4254 37.4603C55.2614 32.6586 51.7375 30.1415 44.8253 24.9138Z" fill="#FF2B34"/>
<path d="M71.5835 43.4239L55.9584 68.943C61.1184 69.1173 63.7032 69.156 68.7954 69.1463C71.5158 73.7932 72.9292 76.0973 75.8335 80.6861L90.0452 54.3441C82.5715 50.1909 78.8637 48.003 71.5835 43.4239Z" fill="white"/>
<path fill-rule="evenodd" clip-rule="evenodd" d="M99.6682 59.475C95.1504 68.3815 90.6519 77.2881 86.1729 86.1946C91.3231 85.9235 93.9177 85.7396 98.9711 85.2943C102.05 89.6701 103.628 91.8483 106.89 96.1564L118.943 68.7397C111.14 65.2546 107.268 63.4055 99.6682 59.475Z" fill="#0077B6"/>
<path d="M221.988 98.0538C220.548 107.922 219.096 117.81 217.631 127.716C222.472 125.78 224.844 124.706 229.549 122.595C233.886 125.683 236.103 127.194 240.604 130.156L243.334 100.377C234.776 99.6415 230.497 99.2059 221.988 98.0538Z" fill="#FF2B34"/>
<path d="M254.274 101.016C253.629 110.968 252.983 120.914 252.338 130.853C257.014 128.472 259.318 127.252 263.868 124.744C268.476 127.445 270.819 128.762 275.582 131.327C275.679 121.375 275.779 111.42 275.882 101.462C267.217 101.578 262.89 101.442 254.274 101.016Z" fill="white"/>
<path fill-rule="evenodd" clip-rule="evenodd" d="M286.909 101.21L287.431 131.056C291.933 128.288 294.15 126.874 298.516 123.989C303.357 126.274 305.825 127.378 310.83 129.517C310.114 119.604 309.381 109.69 308.633 99.7771C299.92 100.61 295.602 100.89 286.909 101.21Z" fill="#0077B6"/>
<path d="M128.905 73.0187C125.136 82.2609 121.367 91.5062 117.597 100.755C122.719 100.038 125.255 99.6415 130.28 98.7605C133.707 102.856 135.459 104.879 139.06 108.897L148.896 80.5893C140.803 77.7915 136.805 76.2716 128.905 73.0187Z" fill="#FF2B34"/>
<path d="M159.148 83.997L150.106 112.556C155.15 111.414 157.648 110.794 162.604 109.497C166.322 113.282 168.258 115.131 172.179 118.839L179.691 89.7959C171.404 87.7339 167.29 86.5624 159.148 83.997Z" fill="white"/>
<path fill-rule="evenodd" clip-rule="evenodd" d="M190.234 92.3614C187.988 102.094 185.748 111.823 183.515 121.55C188.462 119.981 190.912 119.158 195.752 117.445C199.809 120.891 201.871 122.586 206.091 125.925L211.232 96.4371C202.781 95.043 198.579 94.2298 190.234 92.3614Z" fill="#0077B6"/>
</svg>
