<svg width="51" height="51" viewBox="0 0 51 51" fill="none" xmlns="http://www.w3.org/2000/svg">
<g clip-path="url(#clip0)">
<path d="M35.382 2.3817C34.0623 1.12399 31.9876 1.12399 30.6679 2.3817L25.9538 7.09583L9.72631 23.3216L1.47636 31.5716C0.85117 32.1967 0.5 33.0445 0.5 33.9286C0.5 34.8127 0.85117 35.6605 1.47636 36.2857L13.118 47.9273C13.7419 48.5553 14.5911 48.9073 15.4763 48.9049H32.167C32.6273 48.9049 33.0003 48.5318 33.0003 48.0716C33.0003 47.6113 32.6272 47.2383 32.167 47.2383H23.5229L28.5837 42.1791L44.8095 25.9517L49.5236 21.2383C50.1488 20.6132 50.5 19.7654 50.5 18.8812C50.5 17.9971 50.1488 17.1493 49.5236 16.5241L35.382 2.3817ZM26.5429 8.8633L43.0428 25.3632L27.9929 40.4107L11.493 23.9108L26.5429 8.8633ZM19.6671 47.2381H15.4763C15.0338 47.2394 14.6091 47.0636 14.2971 46.7497L2.65555 35.1082C2.34286 34.7956 2.16718 34.3715 2.16718 33.9295C2.16718 33.4874 2.34286 33.0633 2.65555 32.7508L10.3155 25.0908L26.8154 41.5907L21.6546 46.7516C21.3427 47.0649 20.9183 47.2402 20.4762 47.2382H19.6671V47.2381ZM48.3452 20.0591L44.2202 24.1832L27.7203 7.68332L31.8444 3.55835C32.157 3.24566 32.5811 3.06997 33.0231 3.06997C33.4653 3.06997 33.8894 3.24566 34.2019 3.55835L48.3435 17.7C48.6562 18.0126 48.8318 18.4366 48.8318 18.8787C48.8318 19.3209 48.6562 19.7449 48.3435 20.0574L48.3452 20.0591Z" fill="#F9AB55"/>
<path d="M24.458 15.6626C24.3017 15.5061 24.0896 15.4182 23.8685 15.4182C23.6473 15.4182 23.4352 15.506 23.2789 15.6626L15.619 23.3218C15.4024 23.5311 15.3154 23.8408 15.3917 24.1322C15.468 24.4236 15.6955 24.6511 15.9868 24.7273C16.2781 24.8036 16.588 24.7167 16.7973 24.5001L24.4581 16.8392C24.7822 16.5141 24.7822 15.9878 24.458 15.6626Z" fill="#F9AB55"/>
<path d="M22.6896 23.3216C22.3642 22.9963 21.8367 22.9963 21.5113 23.3216L18.5655 26.2674C18.3489 26.4767 18.262 26.7865 18.3383 27.0779C18.4145 27.3693 18.6421 27.5968 18.9334 27.673C19.2248 27.7493 19.5346 27.6623 19.7438 27.4457L22.6896 24.4999C23.0149 24.1745 23.0149 23.647 22.6896 23.3216Z" fill="#F9AB55"/>
<path d="M32.118 20.9658C32.3346 20.7565 32.4215 20.4468 32.3452 20.1553C32.2689 19.864 32.0414 19.6365 31.7501 19.5602C31.4587 19.484 31.1489 19.5709 30.9396 19.7875L21.5113 29.2158C21.2947 29.425 21.2078 29.7348 21.2841 30.0262C21.3603 30.3176 21.5879 30.5451 21.8792 30.6214C22.1706 30.6976 22.4804 30.6107 22.6896 30.3941L32.118 20.9658Z" fill="#F9AB55"/>
<path d="M37.167 48.9048C37.6272 48.9048 38.0003 48.5317 38.0003 48.0715C38.0003 47.6112 37.6272 47.2382 37.167 47.2382H35.5003C35.04 47.2382 34.667 47.6112 34.667 48.0715C34.667 48.5317 35.0401 48.9048 35.5003 48.9048H37.167Z" fill="#F9AB55"/>
</g>
<defs>
<clipPath id="clip0">
<rect width="50" height="50" fill="white" transform="translate(0.5 0.171631)"/>
</clipPath>
</defs>
</svg>
