<svg width="50" height="50" viewBox="0 0 50 50" fill="none" xmlns="http://www.w3.org/2000/svg">
<g clip-path="url(#clip0)">
<path d="M25.0009 49.9998C38.808 49.9998 50.0008 38.807 50.0008 24.9999C50.0008 11.1928 38.808 0 25.0009 0C11.1938 0 0.000999451 11.1928 0.000999451 24.9999C0.000999451 38.807 11.1938 49.9998 25.0009 49.9998Z" fill="#4E598F"/>
<path d="M49.9603 23.6035L38.1853 11.8247C37.9902 11.8838 37.5035 11.6573 37.2895 11.7003C32.239 12.5421 27.3569 11.7003 22.4747 13.0471C20.1178 13.7205 19.9494 16.5824 19.1077 18.4342C17.9293 21.8012 18.0977 25.5049 16.5824 28.7035C15.5724 30.8921 13.2155 32.2389 12.3737 34.7642C12.0929 35.8174 12.1095 37.1449 11.792 38.1518L23.6064 49.9606C24.0679 49.986 24.5322 49.9999 24.9999 49.9999C38.8069 49.9999 49.9998 38.807 49.9998 25C49.9999 24.5313 49.9859 24.0658 49.9603 23.6035Z" fill="#364270"/>
<path d="M35.4533 10.6899H14.5466C12.4168 10.6899 10.6902 12.4165 10.6902 14.5464V35.453C10.6902 37.583 12.4167 39.3095 14.5466 39.3095H24.8575L24.8754 29.0827H22.2182C21.8728 29.0827 21.5926 28.8034 21.5914 28.4581L21.5784 25.1614C21.5771 24.8144 21.8584 24.5321 22.2054 24.5321H24.8579V21.3467C24.8579 17.6503 27.1155 15.6375 30.413 15.6375H33.119C33.465 15.6375 33.7459 15.9181 33.7459 16.2644V19.044C33.7459 19.3903 33.4653 19.671 33.1194 19.671L31.4587 19.6719C29.6654 19.6719 29.3179 20.524 29.3179 21.7748V24.5325H33.2584C33.6342 24.5325 33.9254 24.8604 33.881 25.233L33.4903 28.5297C33.4531 28.8453 33.1854 29.0829 32.8677 29.0829H29.3357L29.3178 39.31H35.4532C37.5829 39.31 39.3096 37.5833 39.3096 35.4535V14.5464C39.3097 12.4166 37.583 10.6899 35.4533 10.6899Z" fill="white"/>
<path d="M24.8575 39.3093L24.8754 29.0826H24.8316V39.3093H24.8575Z" fill="white"/>
<path d="M35.4533 10.6899H24.8317V24.5318H24.8579V21.3465C24.8579 17.6501 27.1155 15.6373 30.413 15.6373H33.119C33.465 15.6373 33.746 15.9179 33.746 16.2642V19.0438C33.746 19.3901 33.4653 19.6708 33.1194 19.6708L31.4587 19.6717C29.6654 19.6717 29.318 20.5238 29.318 21.7746V24.5322H33.2585C33.6342 24.5322 33.9255 24.8601 33.881 25.2327L33.4903 28.5294C33.4531 28.845 33.1854 29.0826 32.8677 29.0826H29.3357L29.3179 39.3097H35.4532C37.583 39.3097 39.3096 37.583 39.3096 35.4532V14.5464C39.3097 12.4166 37.5831 10.6899 35.4533 10.6899Z" fill="#D1D1D1"/>
</g>
<defs>
<clipPath id="clip0">
<rect width="50" height="50" fill="white"/>
</clipPath>
</defs>
</svg>
