<svg width="51" height="51" viewBox="0 0 51 51" fill="none" xmlns="http://www.w3.org/2000/svg">
<g clip-path="url(#clip0)">
<path d="M25.3343 11.3859C18.2019 11.3859 12.399 17.1887 12.399 24.3211C12.399 27.2401 13.3562 29.9982 15.1656 32.2958C15.5228 32.7506 15.8981 33.1859 16.2955 33.6468L16.3173 33.6721C17.5329 35.0825 18.7898 36.5413 19.2592 38.2591C19.3653 38.6527 19.3804 39.4075 19.3743 39.9889V40.977C19.3743 41.8813 20.1074 42.6144 21.0117 42.6144H29.5857C30.49 42.6144 31.2231 41.8813 31.2231 40.977V39.9773C31.2177 39.218 31.257 38.6639 31.3362 38.3763C31.8082 36.6699 33.2011 35.0314 34.4412 33.573L34.4947 33.5101C34.8525 33.0896 35.1907 32.6925 35.4985 32.301C37.3106 30.0021 38.2684 27.2427 38.2684 24.3211C38.2682 17.1887 32.466 11.3859 25.3343 11.3859ZM32.9252 30.2754C32.6555 30.6184 32.3377 30.992 32.001 31.3874L31.9351 31.4649C30.4865 33.1687 28.8447 35.0997 28.1793 37.5052C28.0852 37.8467 27.9806 38.3575 27.9539 39.3396H22.6461C22.6234 38.2966 22.517 37.7617 22.4199 37.4015C21.754 34.9641 20.115 33.0623 18.7979 31.5338L18.7758 31.5081C18.4036 31.0765 18.0521 30.6686 17.7397 30.2713C16.3883 28.5553 15.6739 26.4976 15.6739 24.3211C15.6739 18.9944 20.0076 14.6607 25.3343 14.6607C30.6603 14.6607 34.9933 18.9944 34.9933 24.3211C34.9933 26.5 34.2786 28.5583 32.9252 30.2754Z" fill="#F9AB55"/>
<path d="M29.5855 43.0793H21.0117C20.1074 43.0793 19.3743 43.8124 19.3743 44.7167C19.3743 45.621 20.1074 46.3541 21.0117 46.3541H29.5857C30.49 46.3541 31.2231 45.621 31.2231 44.7167C31.2231 43.8124 30.4898 43.0793 29.5855 43.0793Z" fill="#F9AB55"/>
<path d="M27.442 46.8143H23.1552C22.2509 46.8143 21.5178 47.5475 21.5178 48.4518C21.5178 49.3561 22.2509 50.0892 23.1552 50.0892H27.442C28.3463 50.0892 29.0794 49.3561 29.0794 48.4518C29.0794 47.5475 28.3463 46.8143 27.442 46.8143Z" fill="#F9AB55"/>
<path d="M47.9281 22.6837H42.2795C41.3752 22.6837 40.642 23.4168 40.642 24.3211C40.642 25.2254 41.3752 25.9585 42.2795 25.9585H47.9281C48.8324 25.9585 49.5656 25.2254 49.5656 24.3211C49.5656 23.4168 48.8324 22.6837 47.9281 22.6837Z" fill="#F9AB55"/>
<path d="M10.0259 24.3211C10.0259 23.4168 9.29274 22.6837 8.38845 22.6837H2.73911C1.83481 22.6837 1.10168 23.4168 1.10168 24.3211C1.10168 25.2254 1.83481 25.9585 2.73911 25.9585H8.38845C9.29274 25.9585 10.0259 25.2254 10.0259 24.3211Z" fill="#F9AB55"/>
<path d="M25.3338 9.01445C26.2381 9.01445 26.9713 8.28132 26.9713 7.37703V1.7266C26.9713 0.822302 26.2381 0.0891724 25.3338 0.0891724C24.4295 0.0891724 23.6964 0.822302 23.6964 1.7266V7.37703C23.6964 8.28132 24.4295 9.01445 25.3338 9.01445Z" fill="#F9AB55"/>
<path d="M38.4732 35.1451C37.8337 34.5056 36.7971 34.5054 36.1574 35.1449C35.518 35.7844 35.5178 36.821 36.1572 37.4607L40.1517 41.4562C40.4715 41.776 40.8905 41.9359 41.3097 41.9359C41.7286 41.9359 42.1476 41.776 42.4674 41.4564C43.1069 40.8169 43.1071 39.7803 42.4677 39.1407L38.4732 35.1451Z" fill="#F9AB55"/>
<path d="M12.1923 13.496C12.5121 13.8158 12.9311 13.9758 13.3503 13.9758C13.7692 13.9758 14.1882 13.816 14.5078 13.4964C15.1475 12.8569 15.1475 11.8203 14.5083 11.1809L10.5154 7.18642C9.87589 6.54674 8.83929 6.54674 8.19982 7.18599C7.56013 7.82546 7.56013 8.86206 8.19938 9.50152L12.1923 13.496Z" fill="#F9AB55"/>
<path d="M12.194 35.1451L8.19937 39.1407C7.5599 39.7801 7.56012 40.8169 8.19959 41.4562C8.51922 41.7758 8.9384 41.9356 9.35736 41.9356C9.77632 41.9356 10.1955 41.7758 10.5153 41.456L14.51 37.4604C15.1495 36.821 15.1493 35.7842 14.5098 35.1449C13.8703 34.5057 12.8335 34.5057 12.194 35.1451Z" fill="#F9AB55"/>
<path d="M37.3161 13.9756C37.7351 13.9756 38.1542 13.8158 38.4741 13.496L42.4677 9.50175C43.1071 8.86228 43.1069 7.82546 42.4674 7.18621C41.828 6.54674 40.7911 6.54674 40.1519 7.18643L36.1583 11.1807C35.5189 11.8201 35.5191 12.8569 36.1585 13.4962C36.478 13.816 36.8969 13.9756 37.3161 13.9756Z" fill="#F9AB55"/>
</g>
<defs>
<clipPath id="clip0">
<rect width="50" height="50" fill="white" transform="translate(0.333618 0.0891724)"/>
</clipPath>
</defs>
</svg>
