<svg width="41" height="41" viewBox="0 0 41 41" fill="none" xmlns="http://www.w3.org/2000/svg">
<circle cx="20.3334" cy="20.38" r="20" fill="#C4C4C4"/>
<path d="M12.5783 25.1667C15.1823 25.1667 17.1023 23.3427 17.1023 20.8467C17.1023 18.3507 15.1823 16.5267 12.5783 16.5267C9.97434 16.5267 8.05434 18.3627 8.05434 20.8467C8.05434 23.3307 9.97434 25.1667 12.5783 25.1667ZM12.5783 23.7987C10.8863 23.7987 9.62634 22.5627 9.62634 20.8467C9.62634 19.1307 10.8863 17.8947 12.5783 17.8947C14.2703 17.8947 15.5303 19.1307 15.5303 20.8467C15.5303 22.5627 14.2703 23.7987 12.5783 23.7987ZM24.8879 17.9547V16.6467H18.7559V25.0467H20.3159V21.8307H24.3719V20.5107H20.3159V17.9547H24.8879ZM32.5285 17.9547V16.6467H26.3965V25.0467H27.9565V21.8307H32.0125V20.5107H27.9565V17.9547H32.5285Z" fill="white"/>
</svg>
