<svg width="41" height="41" viewBox="0 0 41 41" fill="none" xmlns="http://www.w3.org/2000/svg">
<circle cx="20.8334" cy="20.273" r="20" fill="#0077B6"/>
<path d="M15.6486 25.0597C18.2526 25.0597 20.1726 23.2357 20.1726 20.7397C20.1726 18.2437 18.2526 16.4197 15.6486 16.4197C13.0446 16.4197 11.1246 18.2557 11.1246 20.7397C11.1246 23.2237 13.0446 25.0597 15.6486 25.0597ZM15.6486 23.6917C13.9566 23.6917 12.6966 22.4557 12.6966 20.7397C12.6966 19.0237 13.9566 17.7877 15.6486 17.7877C17.3406 17.7877 18.6006 19.0237 18.6006 20.7397C18.6006 22.4557 17.3406 23.6917 15.6486 23.6917ZM27.7421 16.5397V22.2277L23.1101 16.5397H21.8261V24.9397H23.3741V19.2517L28.0061 24.9397H29.2901V16.5397H27.7421Z" fill="white"/>
</svg>
