<svg width="50" height="51" viewBox="0 0 50 51" fill="none" xmlns="http://www.w3.org/2000/svg">
<path d="M37.8808 37.7319H8.28808L15.3757 34.7361C15.4488 34.7361 15.5218 34.663 15.5218 34.5899L36.2002 13.8385C36.4194 13.6193 36.4194 13.254 36.2002 13.0348L30.647 7.48159C30.5739 7.40852 30.4278 7.33545 30.2817 7.33545C30.1355 7.33545 29.9894 7.40852 29.9163 7.48159L9.23796 28.3061C9.1649 28.3791 9.1649 28.4522 9.09183 28.4522L5.07307 38.0972C5.07307 38.1703 5.07307 38.2433 5 38.3164C5 38.3895 5 38.3895 5 38.4626C5 38.4626 5 38.4626 5 38.5356C5 38.6087 5.07307 38.6818 5.07307 38.6818C5.14614 38.7548 5.21921 38.7548 5.21921 38.8279C5.29227 38.8279 5.36534 38.901 5.43841 38.901H37.7346C38.0269 38.901 38.3192 38.6818 38.3192 38.3164C38.3922 37.9511 38.173 37.7319 37.8808 37.7319ZM15.1565 33.4939L13.1106 31.448L29.9163 14.6423L31.9622 16.6882L15.1565 33.4939ZM30.3547 8.72375L35.1772 13.5463L32.766 15.9575L27.9435 11.135L30.3547 8.72375ZM27.1397 11.8657L29.1856 13.9116L12.3799 30.7173L10.334 28.6714L27.1397 11.8657ZM9.82251 29.6213L14.2797 34.0785L10.5532 35.6129L8.21501 33.3478L9.82251 29.6213ZM7.7766 34.4438L9.3841 36.0513L6.6075 37.2204L7.7766 34.4438Z" fill="#F9AB55" stroke="#F9AB55"/>
<circle cx="25" cy="25.107" r="24" stroke="#F9AB55" stroke-width="2"/>
</svg>
