<svg width="32" height="32" viewBox="0 0 32 32" fill="none" xmlns="http://www.w3.org/2000/svg">
<g clip-path="url(#clip0)">
<path d="M16.0001 32C24.8365 32 32.0001 24.8365 32.0001 15.9999C32.0001 7.16336 24.8365 0 16.0001 0C7.16359 0 0 7.16347 0 16.0001C0 24.8366 7.16347 32 16.0001 32ZM16.0001 2.55997C23.4106 2.55997 29.44 8.58937 29.44 15.9999C29.44 23.4105 23.4106 29.4399 16.0001 29.4399C8.58949 29.4399 2.56009 23.4105 2.56009 15.9999C2.56009 8.58937 8.58878 2.55997 16.0001 2.55997Z" fill="#F9AB55"/>
<path d="M13.0266 23.5469C13.9104 23.5469 14.6266 22.8308 14.6266 21.9469V9.78687C14.6266 8.90307 13.9105 8.18683 13.0266 8.18683C12.1428 8.18683 11.4266 8.90295 11.4266 9.78687V21.9469C11.4266 22.8308 12.1427 23.5469 13.0266 23.5469Z" fill="#F9AB55"/>
<path d="M19.4265 23.5469C20.3103 23.5469 21.0266 22.8308 21.0266 21.9469V9.78687C21.0266 8.90307 20.3104 8.18683 19.4265 8.18683C18.5426 8.18683 17.8266 8.90307 17.8266 9.78687V21.9469C17.8266 22.8308 18.5427 23.5469 19.4265 23.5469Z" fill="#F9AB55"/>
</g>
<defs>
<clipPath id="clip0">
<rect width="32" height="32" fill="white"/>
</clipPath>
</defs>
</svg>
