<svg width="32" height="33" viewBox="0 0 32 33" fill="none" xmlns="http://www.w3.org/2000/svg">
<g clip-path="url(#clip0)">
<path d="M16.0001 32.0159C24.8365 32.0159 32.0001 24.8525 32.0001 16.0159C32.0001 7.17929 24.8365 0.0159302 16.0001 0.0159302C7.16359 0.0159302 0 7.1794 0 16.016C0 24.8526 7.16347 32.0159 16.0001 32.0159ZM29.44 16.016C29.44 23.4266 23.4106 29.456 16.0001 29.456C8.58949 29.456 2.56009 23.4266 2.56009 16.016C2.56009 8.60542 8.58949 2.57602 16.0001 2.57602C23.4106 2.57602 29.44 8.60542 29.44 16.016Z" fill="#FF6B35"/>
<path d="M13.2135 24.1414C13.5302 24.2726 13.8529 24.3366 14.1825 24.3366C14.8487 24.3366 15.4983 24.0768 15.9879 23.5865L21.7454 17.8264C22.7451 16.8267 22.7438 15.2056 21.7441 14.2059L15.9835 8.44587C15.4939 7.95626 14.8386 7.69574 14.1722 7.69574C13.8426 7.69574 13.5296 7.75975 13.2129 7.89095C12.2567 8.28714 11.6532 9.22024 11.6532 10.2557V21.7757C11.6531 22.8115 12.2567 23.7452 13.2135 24.1414ZM14.2132 10.4428V10.2559L19.9732 16.016L14.2132 21.7761V10.4428Z" fill="#FF6B35"/>
</g>
<defs>
<clipPath id="clip0">
<rect width="32" height="32" fill="white" transform="translate(0 0.0159302)"/>
</clipPath>
</defs>
</svg>
