<svg width="50" height="50" viewBox="0 0 50 50" fill="none" xmlns="http://www.w3.org/2000/svg">
<g clip-path="url(#clip0)">
<path d="M25 50C38.8071 50 50 38.8071 50 25C50 11.1929 38.8071 0 25 0C11.1929 0 0 11.1929 0 25C0 38.8071 11.1929 50 25 50Z" fill="#F36E50"/>
<path d="M38.3803 13.606C35.7726 15.8686 33.1798 17.8516 31.0606 20.6228C25.8476 26.9091 19.4773 35.8279 10.808 34.4984L26.2973 49.9668C39.4277 49.2956 49.881 38.4928 49.9971 25.223L38.3803 13.606Z" fill="black" fill-opacity="0.06"/>
<path d="M39.9895 25C39.9895 26.5614 38.7403 27.8105 37.179 27.8105H27.8106V37.1789C27.8106 38.7403 26.5614 39.9894 25.0001 39.9894C23.4387 39.9894 22.1895 38.7403 22.1895 37.1789V27.8105H12.8211C11.2597 27.8105 10.0105 26.5614 10.0105 25C10.0105 23.4386 11.2597 22.1895 12.8211 22.1895H22.1894V12.8211C22.1894 11.2597 23.4386 10.0106 25 10.0106C26.5613 10.0106 27.8105 11.2597 27.8105 12.8211V22.1895H37.1789C38.7404 22.1895 39.9895 23.4385 39.9895 25Z" fill="white"/>
<g opacity="0.2">
<path opacity="0.2" d="M25.1003 31.5579C18.2301 37.0228 10.5792 39.8334 3.39674 39.9895C-1.91207 30.9333 -0.819043 8.91759 5.42658 2.51585C11.0476 -3.26132 28.6915 -4.35435 38.8407 -0.763134C41.3388 9.54216 36.1862 22.6579 25.1003 31.5579Z" fill="white"/>
</g>
</g>
<defs>
<clipPath id="clip0">
<rect width="50" height="50" fill="white"/>
</clipPath>
</defs>
</svg>
