<svg width="598" height="598" viewBox="0 0 598 598" fill="none" xmlns="http://www.w3.org/2000/svg">
<path d="M419.664 211.765C419.73 212.326 419.909 212.861 420.186 213.327C420.463 213.792 420.831 214.175 421.258 214.444C422.381 212.942 423.787 211.765 425.366 211.006C424.627 210.234 424.151 209.177 424.026 208.029C422.366 208.909 420.881 210.181 419.664 211.765Z" fill="#FB242D"/>
<path d="M118.635 75.8339C117.806 76.1316 117.359 76.8162 116.836 78.0962C118.251 78.9964 119.466 80.2707 120.382 81.8171C120.845 80.8414 121.592 80.0916 122.487 79.7036C121.439 78.1252 120.129 76.8092 118.635 75.8339Z" fill="#FB242D"/>
<path d="M428.797 52.318C428.193 52.5412 427.649 52.9462 427.222 53.4923C426.794 54.0383 426.497 54.7062 426.361 55.4287C426.948 56.6766 427.878 57.6572 429.001 58.2119C430.243 57.1581 431.717 56.5386 433.249 56.4259C431.544 55.4201 430.029 54.023 428.797 52.318Z" fill="#FB242D"/>
<path d="M79.0259 470.053C79.2574 469.63 79.3898 469.143 79.4099 468.642C79.4301 468.14 79.3373 467.642 79.1407 467.195C78.3725 466.837 77.5237 466.79 76.7298 467.061C76.4627 468.242 75.9142 469.31 75.1479 470.142C76.4222 469.807 77.7414 469.777 79.0259 470.053Z" fill="#FB242D"/>
<path d="M35.4368 336.429C35.4898 338.222 35.8137 339.991 36.3935 341.653C37.2582 341.237 38.0084 340.553 38.5621 339.673C38.0575 338.716 37.8336 337.593 37.9243 336.473C37.5334 336.684 37.1068 336.79 36.6762 336.782C36.2456 336.774 35.822 336.654 35.4368 336.429Z" fill="#FB242D"/>
<path d="M237.807 46.9599C235.946 44.3363 233.705 42.1146 231.186 40.3963C230.283 42.2023 229.816 44.2593 229.834 46.3497C231.551 47.1095 233.008 48.5054 233.98 50.3236C234.367 49.4695 234.91 48.7253 235.572 48.1439C236.233 47.5626 236.996 47.1583 237.807 46.9599Z" fill="#FB242D"/>
<path d="M238.699 171.579C238.323 172.555 237.776 173.427 237.092 174.139C238.817 174.779 240.457 175.696 241.965 176.863C242.777 176.393 243.41 175.586 243.738 174.601C242.166 173.366 240.475 172.352 238.699 171.579Z" fill="#FB242D"/>
<path d="M363.458 144.447C365.537 144.267 367.624 144.607 369.582 145.444C368.844 140.722 368.659 135.906 369.033 131.126C367.354 129.729 365.288 129.118 363.242 129.414C362.794 134.417 362.867 139.465 363.458 144.447Z" fill="#FB242D"/>
<path d="M429.167 195.795C429.463 198.158 430.407 200.347 431.859 202.031C433.311 202.003 434.758 202.244 436.145 202.745C435.52 201.257 435.775 200.141 436.86 198.146C434.203 197.854 431.605 197.06 429.167 195.795Z" fill="#FB242D"/>
<path d="M131.2 30.4095C132.379 33.0685 134.257 35.2173 136.558 36.5415C138.282 35.832 140.089 35.4354 141.916 35.3657C140.64 33.8774 140.64 32.389 141.176 29.5611C138.229 30.5881 135.244 30.5881 131.2 30.4095Z" fill="#FB242D"/>
<path d="M521.882 286.376C519.54 286.245 517.242 285.577 515.121 284.411C514.539 285.693 514.333 287.162 514.534 288.593C516.684 289.845 518.985 290.704 521.359 291.138C520.759 288.921 520.823 287.685 521.882 286.376Z" fill="#FB242D"/>
<path d="M279.661 119.338C281.66 117.432 283.962 116.006 286.434 115.141C286.104 113.591 285.347 112.211 284.279 111.212C281.739 112.034 279.321 113.304 277.109 114.977C278.883 116.317 279.661 117.344 279.661 119.338Z" fill="#FB242D"/>
<path d="M35.8193 292.284C36.2033 292.689 36.4875 293.206 36.6423 293.782C36.7971 294.357 36.8168 294.971 36.6995 295.559C38.0506 294.97 39.2681 294.028 40.2586 292.805C40.3302 292.276 40.278 291.734 40.1073 291.236C39.9367 290.738 39.654 290.303 39.2891 289.977C38.3527 291.129 37.1455 291.931 35.8193 292.284Z" fill="#FB242D"/>
<path d="M146.457 13.9335C145.697 14.3483 144.856 14.5174 144.021 14.4232C143.186 14.3289 142.389 13.9747 141.711 13.3977C141.611 16.1306 142.047 18.8542 142.987 21.3604C143.627 21.8047 144.356 22.0466 145.101 22.0623C145.846 22.078 146.581 21.8668 147.235 21.4497C146.349 19.0876 146.079 16.4737 146.457 13.9335Z" fill="#FB242D"/>
<path d="M29.9898 88.083C31.462 86.6015 32.5639 84.6834 33.1789 82.5315C32.4458 81.4271 31.4102 80.6495 30.2449 80.3287C29.6736 82.4686 28.5729 84.3638 27.0813 85.7761C27.6928 85.8462 28.2794 86.0941 28.7875 86.4971C29.2956 86.9001 29.709 87.4454 29.9898 88.083Z" fill="#FB242D"/>
<path d="M250.321 86.8626C249.034 86.3154 247.643 86.1969 246.302 86.5203C245.986 87.4237 245.941 88.4259 246.175 89.363C247.496 89.0301 248.871 89.1595 250.129 89.7351C249.95 89.2765 249.874 88.7724 249.907 88.27C249.941 87.7676 250.083 87.2833 250.321 86.8626Z" fill="#FB242D"/>
<path d="M435.852 149.969C436.545 152.44 436.427 155.124 435.52 157.5C439.768 156.934 443.952 155.788 445.649 154.523C445.448 152.089 444.791 149.736 443.722 147.632C441.822 149.09 439.602 149.477 435.852 149.969Z" fill="#FB242D"/>
<path d="M505.451 111.227C505.763 113.783 505.259 116.383 504.035 118.535C508.258 118.817 512.518 118.535 514.355 117.716C514.507 115.293 514.206 112.861 513.475 110.587C511.421 111.569 509.202 111.495 505.451 111.227Z" fill="#FB242D"/>
<path d="M32.5666 156.785C32.4272 157.238 32.2074 157.651 31.9216 157.997C31.6358 158.343 31.2904 158.615 30.9082 158.794C32.3733 160.852 34.0931 162.642 36.0108 164.108C36.9028 163.533 37.647 162.69 38.1667 161.667C35.9672 160.637 34.0367 158.954 32.5666 156.785Z" fill="#FB242D"/>
<path d="M306.794 38.0299C307.225 38.0374 307.65 38.153 308.039 38.3687C308.429 38.5844 308.774 38.8952 309.052 39.2801C310.228 36.959 311.113 34.4529 311.68 31.8383C310.906 31.0192 309.952 30.4678 308.924 30.2458C308.81 33.0132 308.075 35.6973 306.794 38.0299Z" fill="#FB242D"/>
<path d="M598 266.03C597.325 264.86 596.965 263.481 596.967 262.071C596.547 262.235 596.088 262.197 595.691 261.967C595.608 263.516 595.895 265.062 596.52 266.432C597.035 266.45 597.545 266.311 598 266.03Z" fill="#FB242D"/>
<path d="M99.3343 25.1407C98.2342 26.1454 96.9011 26.7416 95.5073 26.8523C95.6134 27.1338 95.6682 27.4379 95.6682 27.7454C95.6682 28.0528 95.6134 28.3569 95.5073 28.6384C97.0734 28.6376 98.6076 28.1218 99.9338 27.15C99.8911 26.4299 99.6841 25.7362 99.3343 25.1407Z" fill="#FB242D"/>
<path d="M89.9072 189.484C91.9355 190.094 93.7342 191.687 96.4258 196.732C98.1432 194.95 99.3239 192.571 99.7935 189.946C97.8567 186.877 95.2788 184.438 92.3055 182.861C92.133 185.311 91.2926 187.632 89.9072 189.484Z" fill="#FB242D"/>
<path d="M304.447 184.349C303.439 184.052 302.546 183.278 301.206 180.792C300.356 181.676 299.77 182.855 299.535 184.156C300.498 185.673 301.782 186.873 303.26 187.639C303.342 186.422 303.758 185.268 304.447 184.349Z" fill="#FB242D"/>
<path d="M461.263 306.32C460.887 308.585 461.155 310.932 462.028 313.002C463.796 311.733 465.866 311.159 467.934 311.365C468.368 309.238 468.425 307.029 468.1 304.876C465.921 305.863 463.6 306.353 461.263 306.32Z" fill="#FB242D"/>
<path d="M163.245 47.719C163.551 49.4908 164.355 51.0931 165.528 52.2733C166.47 50.7345 167.812 49.5913 169.355 49.0139C169.122 47.3209 168.587 45.7036 167.786 44.266C166.474 45.7431 164.933 46.915 163.245 47.719Z" fill="#FB242D"/>
<path d="M80.5693 53.7022C81.1434 53.4491 81.4113 52.9878 81.845 52.2138C80.2236 50.9944 78.8058 49.4411 77.6608 47.6297C77.3342 48.1918 76.8525 48.6067 76.2959 48.8055C77.4051 50.7743 78.8621 52.4438 80.5693 53.7022Z" fill="#FB242D"/>
<path d="M20.9581 433.439C20.282 433.797 20.0013 434.392 19.5676 435.374C21.6347 436.663 23.488 438.371 25.0402 440.42C25.3864 439.701 25.9302 439.14 26.5837 438.827C25.0606 436.582 23.1422 434.745 20.9581 433.439Z" fill="#FB242D"/>
<path d="M24.2492 357.147C24.7816 356.25 25.1387 355.229 25.2952 354.154C25.4518 353.079 25.4039 351.976 25.1549 350.925C22.1574 349.999 19.2664 348.654 16.5443 346.922C16.4476 348.094 16.0915 349.217 15.511 350.181C18.7075 351.977 21.6534 354.325 24.2492 357.147Z" fill="#FB242D"/>
<path d="M318.951 11.1503C319.365 10.6797 319.682 10.1057 319.878 9.47162C320.075 8.8375 320.146 8.15965 320.086 7.48896C318.353 6.54123 316.726 5.35178 315.239 3.94669C315.075 4.65217 314.754 5.29424 314.307 5.80712C316.083 7.29645 317.65 9.09906 318.951 11.1503Z" fill="#FB242D"/>
<path d="M391.025 193.16C389.941 194.396 389.75 195.899 389.839 198.34C392.64 198.387 395.395 199.186 397.888 200.677C397.939 198.771 398.572 196.949 399.674 195.542C396.962 194.063 394.018 193.253 391.025 193.16Z" fill="#0077B6"/>
<path d="M156.471 187.802C155.973 189.395 156.292 190.779 157.249 192.833C159.685 191.542 162.344 190.931 165.018 191.047C164.394 189.377 164.308 187.501 164.775 185.763C161.916 185.765 159.088 186.459 156.471 187.802Z" fill="#0077B6"/>
<path d="M399.189 159.449C398.87 159.868 398.653 160.378 398.558 160.927C398.464 161.477 398.497 162.045 398.654 162.575C399.452 163.127 400.387 163.347 401.307 163.2C401.766 161.938 402.522 160.854 403.488 160.074C402.034 160.208 400.571 159.995 399.189 159.449Z" fill="#0077B6"/>
<path d="M407.889 85.1361C407.935 84.4045 407.815 83.6718 407.542 83.0112C407.269 82.3505 406.852 81.7848 406.333 81.3705C405.127 81.5457 404.005 82.1846 403.144 83.1863C403.516 84.9197 403.463 86.7403 402.991 88.4402C404.413 86.9594 406.08 85.8349 407.889 85.1361Z" fill="#0077B6"/>
<path d="M334.31 97.281C331.024 97.5655 327.807 98.5227 324.806 100.109C325.648 102.258 326.97 104.103 328.633 105.452C330.304 103.964 331.924 103.74 334.437 103.606C334.019 102.628 333.791 101.554 333.769 100.46C333.746 99.3671 333.931 98.2815 334.31 97.281Z" fill="#0077B6"/>
<path d="M0.356276 370.408C-0.00688587 372.171 -0.0933231 373.996 0.101146 375.796C1.03058 375.646 1.91022 375.215 2.65245 374.545C2.36942 373.462 2.40534 372.299 2.75451 371.241C2.32681 371.318 1.88978 371.283 1.47503 371.139C1.06027 370.995 0.678148 370.745 0.356276 370.408Z" fill="#0077B6"/>
<path d="M400.159 47.9869C399.374 47.0497 398.77 45.9285 398.386 44.6976C396.976 46.6924 395.341 48.4548 393.526 49.9366C393.612 51.2246 394.113 52.4266 394.929 53.3003C396.847 51.7785 398.603 49.9947 400.159 47.9869Z" fill="#0077B6"/>
<path d="M67.1877 376.242C68.1338 377.811 68.7818 379.597 69.0885 381.481C71.5281 378.978 74.2491 376.875 77.1761 375.23C77.3161 373.328 76.8329 371.435 75.8239 369.932C72.7358 371.617 69.8356 373.736 67.1877 376.242Z" fill="#0077B6"/>
<path d="M19.6185 498.406C18.237 498.902 17.0321 499.91 16.187 501.278C16.3467 502.457 16.3467 503.657 16.187 504.835C17.0162 504.166 17.705 504.255 19.0062 504.91C18.9048 502.717 19.1116 500.52 19.6185 498.406Z" fill="#0077B6"/>
<path d="M485.232 209.383C487.16 207.023 488.385 204.001 488.728 200.766C487.489 198.97 486.495 196.962 485.781 194.812C484.939 196.852 483.702 197.462 480.959 197.789C482.911 200.915 483.918 204.502 485.232 209.383Z" fill="#0077B6"/>
<path d="M448.111 114.977C446.645 114.375 445.297 113.439 444.143 112.224C443.566 112.912 443.194 113.8 443.085 114.754C444.248 116.024 445.568 117.083 447.001 117.895C447.014 116.362 447.23 115.588 448.111 114.977Z" fill="#0077B6"/>
<path d="M496.943 166.028C496.563 167.5 495.939 168.87 495.106 170.061C495.626 170.608 496.284 170.942 496.981 171.014C497.847 169.826 498.552 168.491 499.073 167.055C497.989 167.114 497.415 166.921 496.943 166.028Z" fill="#0077B6"/>
<path d="M545.953 429.555C545.543 429.861 545.07 430.033 544.583 430.054C544.096 430.075 543.614 429.944 543.185 429.674C543.313 431.256 543.749 432.784 544.461 434.139C544.856 434.336 545.289 434.41 545.716 434.352C546.144 434.295 546.551 434.108 546.897 433.811C546.228 432.533 545.9 431.051 545.953 429.555Z" fill="#0077B6"/>
<path d="M21.4556 538.919C21.3481 539.489 21.1115 540.014 20.7704 540.441C20.4293 540.868 19.9963 541.18 19.5166 541.345C20.6009 542.395 21.881 543.134 23.2543 543.503C23.6648 543.31 24.0254 542.996 24.3005 542.592C24.5755 542.187 24.7557 541.706 24.8233 541.196C23.5302 540.849 22.3567 540.055 21.4556 538.919Z" fill="#0077B6"/>
<path d="M171.23 98.4866C170.787 101.38 171.03 104.36 171.932 107.104C173.416 107.481 174.965 107.266 176.333 106.494C175.416 103.799 175.195 100.85 175.695 98.0103C175.044 98.5178 174.294 98.8273 173.514 98.9105C172.734 98.9937 171.949 98.8479 171.23 98.4866Z" fill="#0077B6"/>
<path d="M409.254 134.371C409.001 135.998 409.134 137.676 409.637 139.223C410.493 139.464 411.394 139.354 412.188 138.91C411.675 137.386 411.556 135.72 411.844 134.118C411.465 134.41 411.029 134.587 410.577 134.631C410.124 134.675 409.669 134.586 409.254 134.371Z" fill="#0077B6"/>
<path d="M548.517 112.849C546.713 112.081 545.218 110.559 544.321 108.578C542.642 111.493 541.388 114.711 540.608 118.103C542.128 119.244 543.844 119.98 545.634 120.261C545.839 118.029 546.795 116.064 548.517 112.849Z" fill="#0077B6"/>
<path d="M387.734 105.675C388.767 104.208 390.231 103.242 391.842 102.966C390.314 100.572 388.456 98.4894 386.344 96.8047C385.139 97.9119 384.151 99.3075 383.448 100.898C384.928 101.716 385.999 103.175 387.734 105.675Z" fill="#0077B6"/>
<path d="M539.052 365.333C539.299 365.412 539.529 365.553 539.725 365.745C539.921 365.938 540.079 366.178 540.187 366.449C541.193 365.32 542.053 364.027 542.739 362.609C542.397 362.005 541.921 361.521 541.361 361.21C540.908 362.793 540.113 364.213 539.052 365.333Z" fill="#0077B6"/>
<path d="M556.324 84.4366C556.551 84.1219 556.832 83.8656 557.148 83.6837C557.464 83.5018 557.809 83.3983 558.161 83.3798C557.488 81.2879 556.555 79.3223 555.393 77.5455C554.55 77.7185 553.762 78.15 553.11 78.7957C554.578 80.3236 555.685 82.266 556.324 84.4366Z" fill="#0077B6"/>
<path d="M402.123 4.21456C402.654 5.7118 402.791 7.35896 402.519 8.94751C402.777 8.90052 403.04 8.91591 403.292 8.99272C403.545 9.06954 403.781 9.20613 403.986 9.39401C404.406 7.66692 404.406 5.83747 403.986 4.11038C403.368 3.94695 402.725 3.98297 402.123 4.21456Z" fill="#0077B6"/>
<path d="M265.858 44.6679C268.32 42.5098 269.685 41.5573 272.236 41.1554C272.021 40.6838 271.892 40.1652 271.857 39.6324C271.821 39.0996 271.881 38.5641 272.032 38.0596C269.342 38.2919 266.759 39.3892 264.57 41.2298C264.724 42.4909 265.169 43.6794 265.858 44.6679Z" fill="#0077B6"/>
<path d="M37.4011 576.559C36.6868 575.324 36.4189 573.761 36.9547 570.204C35.5508 570.202 34.183 570.723 33.0512 571.692C32.8726 573.998 33.2019 576.319 34.0079 578.434C34.933 577.393 36.1248 576.735 37.4011 576.559Z" fill="#0077B6"/>
<path d="M112.945 57.9439C112.04 57.5421 111.274 56.7086 110.254 54.238C109.37 54.9646 108.715 56.0107 108.391 57.2147C109.153 58.7401 110.238 60.0113 111.542 60.9058C111.721 59.7664 112.214 58.7264 112.945 57.9439Z" fill="#0077B6"/>
<path d="M547.089 284.709C547.516 286.657 548.485 288.384 549.844 289.62C550.819 287.856 552.255 286.504 553.939 285.765C553.605 283.904 552.94 282.144 551.987 280.601C550.599 282.33 548.935 283.725 547.089 284.709Z" fill="#0077B6"/>
<path d="M76.1045 303.626C77.7554 302.928 79.1632 301.615 80.11 299.89C78.4535 298.925 77.1105 297.358 76.2831 295.425C74.6965 296.007 73.232 296.97 71.9841 298.253C73.6472 299.71 75.0474 301.536 76.1045 303.626Z" fill="#0077B6"/>
<path d="M84.6387 335.402C83.8324 334.411 82.7438 333.797 81.5771 333.675C80.7033 337.833 79.1906 341.772 77.1123 345.299C78.177 345.64 79.1147 346.384 79.7784 347.413C82.1089 343.856 83.7655 339.762 84.6387 335.402Z" fill="#0077B6"/>
<path d="M75.9004 435.836C76.6913 435.419 77.023 434.719 77.546 433.573C75.1298 432.054 72.9689 430.037 71.1678 427.62C70.7689 428.454 70.1392 429.104 69.3818 429.466C71.1411 432.106 73.3636 434.278 75.9004 435.836Z" fill="#0077B6"/>
<path d="M341.683 283.845C341.963 283.337 342.145 282.763 342.216 282.164C342.286 281.565 342.244 280.955 342.091 280.378C340.416 279.912 338.793 279.218 337.256 278.309C337.225 278.963 337.044 279.595 336.733 280.14C338.534 281.076 340.203 282.325 341.683 283.845Z" fill="#0077B6"/>
<path d="M447.128 272.981C448.019 273.323 448.963 273.435 449.895 273.309C450.827 273.183 451.724 272.822 452.524 272.251C452.458 268.615 452.762 264.983 453.43 261.431C452.434 261.653 451.406 261.571 450.445 261.193C449.86 265.296 448.741 269.271 447.128 272.981Z" fill="#0077B6"/>
<path d="M266.547 13.8591C267.759 12.3707 267.988 10.6145 267.759 7.78662C264.504 7.84796 261.282 7.02772 258.344 5.39038C258.408 7.45919 257.885 8.87312 256.418 11.4331C259.615 13.0472 263.063 13.8731 266.547 13.8591Z" fill="white"/>
<path d="M586.111 204.293C586.66 204.562 587.254 204.677 587.848 204.631C588.441 204.584 589.017 204.377 589.53 204.025C588.889 201.702 588.714 199.237 589.019 196.822C587.85 197.236 586.591 197.146 585.473 196.569C585.229 199.167 585.446 201.797 586.111 204.293Z" fill="white"/>
<path d="M404.675 280.631C404.935 281.252 405.329 281.783 405.819 282.172C406.309 282.561 406.878 282.794 407.468 282.848C408.387 282.048 409.047 280.91 409.344 279.619C408.345 278.406 407.659 276.89 407.366 275.243C406.783 277.228 405.868 279.059 404.675 280.631Z" fill="white"/>
<path d="M582.552 257.71C583.164 258.478 583.94 259.044 584.8 259.35C585.66 259.655 586.575 259.691 587.45 259.451C588.477 257.821 588.999 255.832 588.93 253.811C587.015 252.566 585.438 250.72 584.376 248.482C584.303 251.67 583.683 254.808 582.552 257.71Z" fill="white"/>
<path d="M435.52 82.6803C433.561 81.1119 431.38 79.9582 429.078 79.272C428.736 80.8847 428.767 82.5744 429.167 84.1686C430.647 84.3114 432.045 85.0174 433.147 86.1779C433.301 85.4287 433.593 84.7277 434.003 84.1236C434.413 83.5195 434.93 83.027 435.52 82.6803Z" fill="white"/>
<path d="M34.5692 467.061C33.0769 467.707 31.6916 468.648 30.4744 469.844C31.1149 470.706 31.9372 471.358 32.8598 471.735C33.4958 470.846 34.3661 470.229 35.3346 469.978C35.0288 469.589 34.8014 469.126 34.6689 468.621C34.5365 468.116 34.5024 467.583 34.5692 467.061Z" fill="white"/>
<path d="M11.0846 321.828C10.2407 321.186 9.53036 320.331 9.0053 319.328C8.11741 321.373 6.99282 323.266 5.66309 324.954C5.95602 326.049 6.58819 326.978 7.43625 327.558C8.84573 325.827 10.0707 323.903 11.0846 321.828Z" fill="white"/>
<path d="M50.7063 546.435C51.9992 546.976 53.1779 547.834 54.1633 548.95C54.8077 545.879 55.8077 542.925 57.1356 540.169C56.4516 538.8 55.3486 537.784 54.0485 537.326C52.6231 540.194 51.5008 543.252 50.7063 546.435Z" fill="white"/>
<path d="M81.424 322.304C79.9996 321.898 78.5008 322.039 77.1505 322.706C76.7722 323.835 76.2473 324.889 75.5942 325.832C76.6148 325.742 77.1761 326.234 78.018 327.618C78.8988 325.643 80.0492 323.848 81.424 322.304Z" fill="white"/>
<path d="M226.9 17.7734C224.837 15.6219 222.232 14.3107 219.475 14.0377C217.988 15.5265 216.315 16.7412 214.513 17.6395C216.273 18.5325 216.835 19.9464 217.192 23.1017C219.794 20.7352 222.805 19.4553 226.9 17.7734Z" fill="white"/>
<path d="M98.6453 238.957C99.276 237.787 100.1 236.775 101.069 235.98C100.73 235.361 100.229 234.886 99.6403 234.626C98.6311 235.424 97.7285 236.392 96.9614 237.498C97.9437 237.722 98.4029 238.049 98.6453 238.957Z" fill="white"/>
<path d="M567.308 348.231C566.365 348.787 565.338 349.121 564.284 349.214C564.299 349.865 564.496 350.492 564.846 351C565.924 350.932 566.987 350.671 567.997 350.226C567.372 349.511 567.142 349.095 567.308 348.231Z" fill="white"/>
<path d="M169.827 281.583C169.444 280.469 169.325 279.256 169.483 278.07C169.64 276.883 170.067 275.768 170.72 274.841C167.837 274.424 165.86 274.93 162.301 276.136C161.204 278.175 161.204 279.559 161.918 282.179C164.967 281.181 167.225 280.72 169.827 281.583Z" fill="white"/>
<path d="M30.0281 260.166C30.5495 260.907 30.8908 261.798 31.0165 262.746C31.1422 263.694 31.0475 264.663 30.7424 265.554C32.9881 265.008 35.0962 263.867 36.9038 262.22C37.121 261.408 37.1529 260.545 36.9963 259.715C36.8397 258.885 36.5 258.117 36.0109 257.487C34.2927 259.061 32.2078 259.995 30.0281 260.166Z" fill="white"/>
<path d="M565.598 517.278C567.124 518.427 568.887 519.075 570.701 519.153C571.353 518.101 571.673 516.818 571.607 515.522C569.812 515.469 568.07 514.807 566.593 513.617C566.703 514.275 566.669 514.956 566.495 515.595C566.321 516.235 566.013 516.813 565.598 517.278Z" fill="white"/>
<path d="M370.768 12.4303C369.262 10.5621 367.348 9.20874 365.231 8.5159C364.201 9.52984 363.502 10.9286 363.254 12.4749C365.35 13.1337 367.235 14.4946 368.676 16.3893C368.716 15.5787 368.928 14.7926 369.293 14.1015C369.658 13.4104 370.165 12.8361 370.768 12.4303Z" fill="white"/>
<path d="M493.409 422.798C494.267 421.866 495.389 421.336 496.56 421.309C495.676 419.433 494.529 417.743 493.167 416.308C492.215 416.95 491.396 417.829 490.769 418.883C491.887 419.943 492.79 421.28 493.409 422.798Z" fill="white"/>
<path d="M583.509 301.006C585.171 299.159 587.362 298.098 589.657 298.029C587.31 293.683 584.555 289.65 582.845 288.34C580.997 289.647 579.417 291.41 578.215 293.505C580.166 294.934 581.455 297.166 583.509 301.006Z" fill="white"/>
<path d="M271.586 221.633C271.176 221.168 270.858 220.606 270.653 219.984C270.448 219.362 270.362 218.696 270.399 218.031C267.428 219.039 264.596 220.543 261.993 222.496C262.106 224.105 262.591 225.648 263.396 226.961C265.681 224.381 268.504 222.544 271.586 221.633Z" fill="white"/>
<path d="M486.317 280.333C486.578 279.761 486.94 279.261 487.38 278.866C487.82 278.47 488.327 278.189 488.868 278.041C487.273 275.008 485.304 272.265 483.025 269.9C481.745 270.452 480.62 271.405 479.772 272.653C482.496 274.495 484.753 277.145 486.317 280.333Z" fill="white"/>
<path d="M461.02 216.632C462.189 217.17 463.193 218.102 463.903 219.311C464.042 219.085 464.219 218.894 464.423 218.751C464.627 218.608 464.854 218.514 465.09 218.477C464.369 217.064 463.327 215.91 462.079 215.143C461.618 215.519 461.252 216.033 461.02 216.632Z" fill="white"/>
<path d="M116.224 158.303C117.716 157.37 119.413 156.981 121.097 157.187C121.018 156.824 121.005 156.447 121.058 156.078C121.11 155.709 121.228 155.357 121.403 155.044C119.546 154.679 117.639 154.921 115.892 155.743C115.806 156.616 115.921 157.499 116.224 158.303Z" fill="white"/>
<path d="M214.602 216.245C212.676 216.944 210.507 216.736 206.106 214.206C205.472 216.685 205.54 219.336 206.298 221.766C209.22 223.121 212.391 223.577 215.508 223.091C214.577 220.984 214.259 218.581 214.602 216.245Z" fill="white"/>
<path d="M526.168 417.395C526.538 419.107 526.308 421.012 524.484 424.837C526.06 425.501 527.777 425.559 529.383 425C530.391 422.488 530.83 419.716 530.658 416.948C529.242 417.658 527.667 417.814 526.168 417.395Z" fill="white"/>
<path d="M559.195 468.594C557.895 470.459 557.156 472.77 557.09 475.173C559.25 475.025 561.394 475.681 563.213 477.048C564.497 475.337 565.473 473.343 566.083 471.184C563.665 470.849 561.326 469.969 559.195 468.594Z" fill="white"/>
<path d="M51.5994 224.728C53.4977 225.482 55.5564 225.482 57.4547 224.728C56.6078 222.487 56.402 219.987 56.8679 217.599C55.1049 216.8 53.2217 216.426 51.3315 216.498C51.878 219.195 51.969 221.99 51.5994 224.728Z" fill="white"/>
<path d="M361.621 75.9232C360.912 76.8285 360.504 78.0011 360.473 79.2274C363.719 79.8936 366.836 81.2399 369.671 83.2012C369.855 82.0395 370.378 80.9879 371.15 80.2245C368.271 78.0195 365.023 76.5533 361.621 75.9232Z" fill="white"/>
<path d="M569.731 270.212C570.806 269.949 571.762 269.24 572.423 268.218C570.009 265.348 568.064 261.989 566.683 258.305C565.934 259.15 564.963 259.674 563.927 259.794C565.207 263.708 567.185 267.259 569.731 270.212Z" fill="white"/>
<path d="M15.0518 221.9C15.7555 221.721 16.416 221.36 16.9854 220.845C17.5547 220.331 18.0185 219.674 18.343 218.924C17.0784 216.563 16.0592 214.035 15.307 211.393C14.7221 211.996 14.0154 212.416 13.2532 212.613C14.2532 215.584 14.8598 218.716 15.0518 221.9Z" fill="white"/>
<path d="M275.834 83.4096C275.157 84.0993 274.619 84.9541 274.258 85.9135C273.896 86.8729 273.72 87.9134 273.742 88.9611C276.35 90.6557 278.778 92.704 280.975 95.0634C281.3 93.9926 281.858 93.0387 282.595 92.295C279.966 89.7531 277.686 86.7566 275.834 83.4096Z" fill="white"/>
<path d="M449.323 92.7565C449.127 93.4104 449.064 94.1085 449.139 94.7956C449.215 95.4828 449.426 96.14 449.756 96.7155C451.702 95.8243 453.797 95.4678 455.88 95.6736C455.456 94.3388 455.456 92.8709 455.88 91.536C453.645 91.4154 451.414 91.8308 449.323 92.7565Z" fill="#FB242D"/>
<path d="M105.33 281.583C105.521 282.476 106.031 283.072 107.001 283.592C107.772 282.147 108.82 280.929 110.063 280.035C109.337 279.479 108.81 278.632 108.583 277.654C107.276 278.686 106.169 280.024 105.33 281.583Z" fill="#FB242D"/>
<path d="M257.209 150.222C257.501 150.884 257.935 151.447 258.47 151.854C259.004 152.261 259.621 152.499 260.258 152.543C261.232 151.666 261.921 150.427 262.21 149.031C261.115 147.744 260.35 146.125 260.003 144.357C259.42 146.512 258.469 148.506 257.209 150.222Z" fill="#FB242D"/>
<path d="M423.363 169.094C423.847 169.217 424.351 169.19 424.823 169.015C425.295 168.84 425.72 168.523 426.055 168.097C426.078 166.979 425.782 165.885 425.213 164.986C424.006 165.137 422.788 164.879 421.705 164.242C422.538 165.709 423.102 167.361 423.363 169.094Z" fill="#FB242D"/>
<path d="M181.818 14.5288C183.521 15.0614 185.291 15.2427 187.048 15.0646C186.951 13.8019 186.564 12.5934 185.926 11.567C184.853 11.8753 183.722 11.7602 182.711 11.2396C182.785 11.8309 182.743 12.434 182.588 13.0037C182.433 13.5733 182.17 14.0947 181.818 14.5288Z" fill="#FB242D"/>
<path d="M523.527 86.1928C521.907 88.9027 520.71 91.9261 519.994 95.1229C521.671 95.6275 523.433 95.5967 525.096 95.0336C525.259 92.9806 525.994 91.0464 527.188 89.5267C526.405 89.3221 525.67 88.9169 525.036 88.3403C524.403 87.7637 523.888 87.0302 523.527 86.1928Z" fill="#FB242D"/>
<path d="M53.5893 491.5C53.6216 493.584 53.2782 495.653 52.5815 497.572C56.0805 497.04 59.6253 497.065 63.1184 497.647C64.2118 496.044 64.749 494.02 64.6237 491.976C60.9747 491.308 57.2706 491.148 53.5893 491.5Z" fill="#FB242D"/>
<path d="M534.881 321.992C536.029 322.124 537.139 322.545 538.134 323.227C538.118 320.568 538.414 317.919 539.014 315.354C538.217 314.404 537.141 313.84 536.003 313.776C535.353 316.453 534.976 319.211 534.881 321.992Z" fill="#FB242D"/>
<path d="M50.8467 564.533C51.7251 565.595 52.8758 566.295 54.1251 566.528C54.8485 565.897 55.6481 565.396 56.4978 565.039C55.7197 564.563 55.5028 563.893 55.439 562.435C54.0163 563.421 52.4651 564.13 50.8467 564.533Z" fill="#FB242D"/>
<path d="M575.982 122.122C574.368 124.18 573.363 126.789 573.112 129.563C574.215 131.13 575.102 132.887 575.74 134.773C576.442 132.986 577.488 132.436 579.86 132.108C578.11 129.048 576.8 125.675 575.982 122.122Z" fill="#FB242D"/>
<path d="M37.9499 390.634C36.4145 388.633 35.2351 386.296 34.4801 383.758C33.3108 384.17 32.2863 385.01 31.5588 386.155C32.2971 388.767 33.3678 391.236 34.7352 393.477C35.6664 391.513 36.4318 390.679 37.9499 390.634Z" fill="#FB242D"/>
<path d="M334.986 193.413C337.247 194.566 339.292 196.224 341.007 198.295C341.992 197.289 342.668 195.936 342.933 194.44C341.224 192.281 339.246 190.434 337.065 188.963C336.861 191.33 336.44 192.58 334.986 193.413Z" fill="#FB242D"/>
<path d="M459.528 132.034C459.951 132.046 460.364 132.19 460.723 132.452C461.082 132.714 461.374 133.083 461.569 133.522C462.103 132.32 462.395 130.991 462.424 129.638C462.217 129.28 461.935 128.992 461.603 128.801C461.272 128.611 460.904 128.525 460.536 128.551C460.498 129.802 460.148 131.013 459.528 132.034Z" fill="#FB242D"/>
<path d="M478.739 516.028C478.762 516.658 478.639 517.283 478.383 517.838C478.127 518.393 477.748 518.858 477.285 519.183C478.642 519.938 480.131 520.315 481.635 520.285C482.031 519.949 482.342 519.496 482.537 518.973C482.732 518.449 482.804 517.874 482.745 517.308C481.33 517.353 479.937 516.907 478.739 516.028Z" fill="#FB242D"/>
<path d="M3.31592 410.831C3.76908 412.433 4.5897 413.859 5.68863 414.954C6.53803 414.674 7.28319 414.072 7.80622 413.242C6.70835 412.176 5.90876 410.75 5.51004 409.15C5.29219 409.62 4.97768 410.02 4.59473 410.313C4.21178 410.607 3.77237 410.785 3.31592 410.831Z" fill="#FB242D"/>
<path d="M289.981 0.0769653C289.246 1.07417 288.765 2.29056 288.59 3.58947C289.096 4.12791 289.744 4.44829 290.427 4.49736C290.588 3.22169 291.062 2.02766 291.792 1.05928C291.445 1.07693 291.099 0.996905 290.784 0.825948C290.468 0.654992 290.193 0.398112 289.981 0.0769653Z" fill="#FB242D"/>
<path d="M552.293 590.326C551.379 591.413 550.152 592.066 548.849 592.157C549.928 594.184 551.285 595.989 552.867 597.5C553.896 596.74 554.767 595.723 555.419 594.523C554.114 593.423 553.045 591.987 552.293 590.326Z" fill="#FB242D"/>
<path d="M7.14284 268.605C7.12111 269.852 6.70284 271.046 5.96924 271.954C7.58877 272.466 9.27049 272.657 10.9443 272.519C11.1848 271.378 11.2065 270.189 11.0081 269.036C9.70831 269.238 8.38619 269.091 7.14284 268.605Z" fill="#FB242D"/>
<path d="M65.8101 39.9796C65.804 39.4381 65.8976 38.9014 66.0847 38.4058C66.2717 37.9103 66.5479 37.4673 66.8944 37.1071C64.7046 35.6866 62.35 34.6438 59.9038 34.0113C59.1801 35.009 58.7037 36.2184 58.5261 37.5089C61.097 37.5794 63.6076 38.431 65.8101 39.9796Z" fill="#FB242D"/>
<path d="M492.797 59.1942C492.526 59.0194 492.29 58.7789 492.105 58.4888C491.92 58.1987 491.791 57.8657 491.725 57.5123C490.303 58.531 489.014 59.7843 487.898 61.2332C488.151 62.056 488.592 62.782 489.174 63.3318C490.048 61.6043 491.298 60.1769 492.797 59.1942Z" fill="#FB242D"/>
<path d="M516.83 459.843C514.893 460.466 512.841 460.399 510.937 459.649C510.952 460.091 510.887 460.531 510.746 460.942C510.606 461.352 510.392 461.723 510.12 462.031C512.182 463.018 514.438 463.322 516.639 462.909C516.935 461.925 517.001 460.866 516.83 459.843Z" fill="#FB242D"/>
<path d="M343.698 49.9367C345.803 47.1535 347.041 45.8735 349.579 44.8465C349.279 44.4245 349.057 43.9335 348.93 43.4053C348.802 42.8771 348.772 42.3235 348.839 41.7805C346.164 42.6533 343.749 44.374 341.861 46.7516C342.221 47.9847 342.855 49.084 343.698 49.9367Z" fill="#FB242D"/>
<path d="M586.187 358.159C585.983 359.245 585.384 360.242 583.458 361.76C584.181 362.656 585.135 363.252 586.175 363.457C587.347 362.374 588.257 360.953 588.815 359.334C587.853 359.288 586.93 358.875 586.187 358.159Z" fill="#FB242D"/>
<path d="M18.6491 308.463C19.9248 307.793 21.5449 307.748 24.8743 309.162C25.1595 307.328 24.936 305.436 24.2365 303.76C22.0506 303.044 19.7429 303.003 17.5393 303.641C18.3403 305.069 18.7292 306.758 18.6491 308.463Z" fill="#FB242D"/>
<path d="M402.787 145.742C401.612 145.024 400.269 144.769 398.96 145.012C399.328 146.613 399.243 148.31 398.717 149.849C399.826 150.596 401.055 151.068 402.328 151.234C402.173 149.386 402.329 147.52 402.787 145.742Z" fill="#FB242D"/>
<path d="M428.823 13.9335C428.776 15.0452 429.045 16.1437 429.588 17.059C430.352 16.3106 431.298 15.8627 432.293 15.779C432.37 14.7472 432.261 13.708 431.974 12.7279C431.002 13.3684 429.931 13.7781 428.823 13.9335Z" fill="#FB242D"/>
<path d="M206.094 144.73C206.54 146.218 207.369 146.813 208.824 147.855C211.031 143.792 213.854 140.232 217.154 137.347C216.125 136.535 215.357 135.347 214.972 133.969C211.387 136.774 208.36 140.443 206.094 144.73Z" fill="#FB242D"/>
<path d="M482.681 50.3236C482.137 50.9892 481.815 51.8606 481.775 52.7794C484.184 53.3281 486.488 54.382 488.574 55.89C488.742 55.0503 489.146 54.3007 489.723 53.7617C487.615 52.037 485.213 50.8641 482.681 50.3236Z" fill="#FB242D"/>
<path d="M219.59 68.3326C218.724 67.5739 217.725 67.0472 216.664 66.79C215.604 66.5328 214.508 66.5513 213.454 66.8443C212.394 70.8549 210.934 74.7064 209.104 78.3194C210.265 78.4811 211.368 78.9943 212.306 79.8078C214.228 75.5786 216.683 71.7104 219.59 68.3326Z" fill="#FB242D"/>
<path d="M125.154 114.471C125.653 114.049 126.067 113.504 126.365 112.873C126.662 112.243 126.837 111.543 126.876 110.825C125.182 109.476 123.632 107.898 122.258 106.122C121.973 106.833 121.533 107.444 120.982 107.893C122.649 109.828 124.055 112.046 125.154 114.471Z" fill="#FB242D"/>
<path d="M96.6936 496.932C96.3585 497.287 96.1004 497.73 95.9407 498.225C95.7811 498.719 95.7243 499.25 95.7752 499.775C97.3563 499.987 98.8749 500.618 100.214 501.621C100.335 500.543 100.789 499.553 101.49 498.837C100.021 497.824 98.3878 497.175 96.6936 496.932Z" fill="#0077B6"/>
<path d="M552.651 192.416C552.918 194.426 553.926 195.706 555.98 197.194C557.908 194.185 560.405 191.735 563.277 190.035C561.848 188.844 561.21 187.52 560.394 184.617C557.379 186.566 554.743 189.221 552.651 192.416Z" fill="#0077B6"/>
<path d="M61.8812 224.073C61.865 224.746 62.0016 225.411 62.2772 226.002C62.5528 226.593 62.9575 227.088 63.4502 227.437C64.5479 227.224 65.5535 226.591 66.3077 225.636C65.9151 224.061 65.9151 222.389 66.3077 220.814C65.0343 222.235 63.529 223.344 61.8812 224.073Z" fill="#0077B6"/>
<path d="M269.685 64.8202C269.46 65.4132 269.372 66.0648 269.43 66.71C269.488 67.3551 269.691 67.9711 270.017 68.4964C271.062 68.7818 272.159 68.6454 273.129 68.1094C273.268 66.5397 273.785 65.0481 274.622 63.8081C273.051 64.5269 271.372 64.871 269.685 64.8202Z" fill="#0077B6"/>
<path d="M582.08 327.648C582.878 325.783 583.383 323.767 583.572 321.694C582.486 321.562 581.389 321.773 580.396 322.304C580.454 323.598 580.15 324.878 579.529 325.951C580.035 325.997 580.526 326.173 580.967 326.466C581.408 326.759 581.788 327.163 582.08 327.648Z" fill="#0077B6"/>
<path d="M442.702 234.09C445.759 235.909 449.067 237.088 452.473 237.573C452.72 235.127 452.399 232.649 451.542 230.399C449.386 230.652 447.83 229.863 445.521 228.39C445.445 229.525 445.153 230.626 444.665 231.612C444.177 232.599 443.506 233.445 442.702 234.09Z" fill="#0077B6"/>
<path d="M197.292 270.718C198.571 272.41 199.52 274.406 200.073 276.567C202.665 273.289 205.626 270.436 208.875 268.084C208.822 265.857 208.057 263.734 206.732 262.13C203.3 264.539 200.131 267.423 197.292 270.718Z" fill="#0077B6"/>
<path d="M159.507 135.814C159.673 134.602 160.06 133.444 160.642 132.421C158.562 132.294 156.507 131.838 154.532 131.067C153.741 131.861 153.243 132.98 153.141 134.192C155.198 135.035 157.336 135.579 159.507 135.814Z" fill="#0077B6"/>
<path d="M164.456 237.469C162.883 236.049 160.959 235.261 158.971 235.221C157.969 236.378 156.82 237.347 155.565 238.094C156.841 238.644 157.325 239.582 157.721 241.859C159.744 239.974 162.02 238.491 164.456 237.469Z" fill="#0077B6"/>
<path d="M395.516 242.946C394.038 241.2 392.12 240.052 390.043 239.671C388.855 240.719 387.533 241.542 386.127 242.112C387.402 242.901 387.785 244.002 387.913 246.414C390.271 244.789 392.838 243.618 395.516 242.946Z" fill="#0077B6"/>
<path d="M93.0579 103.145C91.2283 103.993 89.2734 104.413 87.3047 104.38C87.2358 105.597 87.5139 106.806 88.0956 107.819C90.1099 107.906 92.1237 107.63 94.0657 107C92.9942 105.541 92.6497 104.589 93.0579 103.145Z" fill="#0077B6"/>
<path d="M263.6 194.798C263.876 193.576 264.352 192.429 265.003 191.419C264.566 190.989 264.018 190.743 263.447 190.72C262.752 191.728 262.196 192.858 261.802 194.068C262.72 193.994 263.192 194.113 263.6 194.798Z" fill="#0077B6"/>
<path d="M461.633 42.4056C461.515 41.9387 461.508 41.4436 461.611 40.9722C461.714 40.5007 461.924 40.0705 462.219 39.7266C461.078 39.4554 459.898 39.5013 458.775 39.8605C458.537 40.1918 458.377 40.5902 458.313 41.0159C458.248 41.4416 458.28 41.8798 458.405 42.2865C459.468 41.9626 460.589 42.0039 461.633 42.4056Z" fill="#0077B6"/>
<path d="M50.043 355.048C50.496 355.481 50.8414 356.047 51.0433 356.689C51.2452 357.33 51.2962 358.023 51.1911 358.695C52.7171 357.944 54.0714 356.787 55.1456 355.316C55.1869 354.706 55.091 354.094 54.8672 353.541C54.6435 352.987 54.2997 352.511 53.8699 352.161C52.8752 353.554 51.5403 354.561 50.043 355.048Z" fill="#0077B6"/>
<path d="M210.15 168.022C208.134 168.791 206.334 170.185 204.946 172.056C205.28 173.522 206.042 174.806 207.101 175.687C208.44 173.832 210.213 172.472 212.204 171.773C211.621 171.396 211.128 170.856 210.77 170.201C210.411 169.546 210.198 168.797 210.15 168.022Z" fill="#0077B6"/>
<path d="M61.3581 348.916C61.1778 347.6 60.6876 346.369 59.9421 345.359C59.2506 345.445 58.6061 345.808 58.1179 346.386C58.8559 347.381 59.3262 348.608 59.4701 349.913C59.6893 349.577 59.9765 349.31 60.3061 349.136C60.6357 348.962 60.9972 348.887 61.3581 348.916Z" fill="#0077B6"/>
<path d="M527.227 482.168C526.55 479.769 526.65 477.164 527.507 474.845C523.387 475.411 519.318 476.542 517.685 477.703C517.894 480.07 518.542 482.356 519.586 484.4C521.422 483.046 523.578 482.659 527.227 482.168Z" fill="#0077B6"/>
<path d="M572.704 392.659C571.657 392.173 570.802 391.249 570.306 390.069C569.274 391.747 568.49 393.613 567.984 395.591C568.855 396.292 569.848 396.76 570.892 396.96C571.217 395.388 571.835 393.919 572.704 392.659Z" fill="#0077B6"/>
<path d="M579.439 437.443C578.921 437.85 578.334 438.124 577.718 438.244C577.102 438.365 576.471 438.33 575.867 438.143C576.121 442.065 576.856 445.924 578.049 449.603C579.549 449.809 581.069 449.542 582.45 448.829C580.614 445.404 579.577 441.479 579.439 437.443Z" fill="#0077B6"/>
<path d="M51.9565 374.173C51.6741 374.631 51.3101 375.011 50.8894 375.289C50.4688 375.566 50.0016 375.734 49.52 375.781C50.5845 378.562 51.9943 381.144 53.7042 383.446C54.8421 383.136 55.8868 382.473 56.7275 381.526C54.615 379.602 52.9704 377.067 51.9565 374.173Z" fill="#0077B6"/>
<path d="M517.175 35.3062C518.833 35.3056 520.454 35.8807 521.831 36.9582C521.907 36.6061 522.045 36.2763 522.236 35.9894C522.427 35.7025 522.667 35.4649 522.941 35.2913C521.486 33.9717 519.746 33.1476 517.914 32.9099C517.489 33.6172 517.233 34.4446 517.175 35.3062Z" fill="#0077B6"/>
<path d="M513.029 390.471C511.704 390.523 510.397 390.108 509.278 389.28C509.222 389.564 509.116 389.831 508.967 390.064C508.817 390.297 508.628 390.491 508.411 390.634C509.581 391.663 510.971 392.296 512.429 392.465C512.784 391.879 512.992 391.188 513.029 390.471Z" fill="#0077B6"/>
<path d="M497.887 218.611C499.775 217.986 501.88 218.269 506.089 220.873C506.768 218.487 506.768 215.908 506.089 213.521C503.281 212.096 500.205 211.542 497.16 211.914C498.013 213.997 498.268 216.346 497.887 218.611Z" fill="#0077B6"/>
<path d="M569.897 559.264C568.711 558.103 567.933 556.377 567.525 552.016C565.887 552.566 564.442 553.713 563.404 555.29C563.871 558.035 564.929 560.596 566.479 562.732C567.273 561.182 568.471 559.967 569.897 559.264Z" fill="#0077B6"/>
<path d="M68.9353 268.917C68.7345 270.069 68.8599 271.265 69.2925 272.326C70.2015 271.69 71.2605 271.408 72.3158 271.522C72.5425 270.44 72.5772 269.316 72.4179 268.218C71.3053 268.705 70.1236 268.943 68.9353 268.917Z" fill="#0077B6"/>
<path d="M403.948 120.842C405.541 119.211 406.63 117.015 407.047 114.59C404.839 114.314 402.764 113.219 401.128 111.465C399.551 112.932 398.249 114.761 397.301 116.838C399.718 117.658 401.975 119.018 403.948 120.842Z" fill="#0077B6"/>
<path d="M225.177 108.965C224.886 107.603 224.178 106.412 223.187 105.616C220.634 108.797 217.609 111.414 214.258 113.34C215.055 114.278 215.562 115.498 215.699 116.808C219.298 115.004 222.528 112.331 225.177 108.965Z" fill="#0077B6"/>
<path d="M551.145 568.254C552.524 568.182 553.832 567.52 554.819 566.394C552.315 562.285 550.47 557.681 549.372 552.805C548.291 553.651 546.997 554.049 545.698 553.936C546.613 559.109 548.471 563.992 551.145 568.254Z" fill="#0077B6"/>
<path d="M302.023 152.707C302.865 152.03 303.569 151.147 304.087 150.118C304.605 149.09 304.924 147.941 305.021 146.754C302.254 144.428 299.736 141.725 297.52 138.702C297.033 139.865 296.294 140.861 295.377 141.589C298.057 144.886 300.297 148.634 302.023 152.707Z" fill="#0077B6"/>
<path d="M534.868 514.525C534.355 514.021 533.752 513.656 533.104 513.455C532.456 513.254 531.777 513.223 531.118 513.364C530.347 515.806 529.333 518.134 528.094 520.299C528.809 520.456 529.477 520.825 530.033 521.371C531.343 518.82 532.972 516.512 534.868 514.525Z" fill="#0077B6"/>
</svg>
