<svg width="25" height="24" viewBox="0 0 25 24" fill="none" xmlns="http://www.w3.org/2000/svg">
<path d="M22.794 5.29594L20.275 2.77688C19.9088 2.41073 19.3153 2.41073 18.9492 2.77688C18.5831 3.14302 18.583 3.73659 18.9492 4.10269L19.5458 4.69931L18.3223 5.92284C16.7295 4.59412 14.793 3.792 12.7272 3.6053V1.875H13.5709C14.0887 1.875 14.5084 1.45528 14.5084 0.9375C14.5084 0.419719 14.0887 0 13.5709 0H10.0084C9.49064 0 9.07092 0.419719 9.07092 0.9375C9.07092 1.45528 9.49064 1.875 10.0084 1.875H10.8522V3.6053C5.70886 4.07011 1.57092 8.38912 1.57092 13.7812C1.57092 19.4288 6.14128 24 11.7897 24C17.4373 24 22.0084 19.4296 22.0084 13.7812C22.0084 11.3667 21.1761 9.08034 19.6481 7.24866L20.8716 6.02512L21.4682 6.62175C21.8343 6.98784 22.4279 6.98789 22.794 6.62175C23.1601 6.25566 23.1601 5.66208 22.794 5.29594ZM11.7897 22.125C7.18894 22.125 3.44592 18.382 3.44592 13.7812C3.44592 9.18052 7.18894 5.4375 11.7897 5.4375C16.3904 5.4375 20.1334 9.18052 20.1334 13.7812C20.1334 18.382 16.3905 22.125 11.7897 22.125ZM16.6611 13.7812C16.6611 14.299 16.2413 14.7188 15.7236 14.7188H11.7897C11.2719 14.7188 10.8522 14.299 10.8522 13.7812V8.26523C10.8522 7.74745 11.2719 7.32773 11.7897 7.32773C12.3075 7.32773 12.7272 7.74745 12.7272 8.26523V12.8438H15.7236C16.2413 12.8438 16.6611 13.2635 16.6611 13.7812Z" fill="white"/>
</svg>
