<svg width="50" height="50" viewBox="0 0 50 50" fill="none" xmlns="http://www.w3.org/2000/svg">
<path d="M25 50C38.8071 50 50 38.8071 50 25C50 11.1929 38.8071 0 25 0C11.1929 0 0 11.1929 0 25C0 38.8071 11.1929 50 25 50Z" fill="#65A2D9"/>
<path d="M38.3803 13.606C35.7725 15.8686 33.1798 17.8516 31.0605 20.6228C25.8475 26.9091 19.4772 35.8279 10.808 34.4984L26.2973 49.9668C39.4277 49.2956 49.8809 38.4928 49.9971 25.223L38.3803 13.606Z" fill="#3A7CA5"/>
<path d="M38.8547 15.8663C38.2185 16.1484 37.5587 16.3709 36.8813 16.5318C37.6278 15.8227 38.1889 14.9355 38.5055 13.9455C38.5959 13.663 38.2888 13.4183 38.0336 13.5697C37.0912 14.1288 36.0762 14.5478 35.0166 14.816C34.9553 14.8316 34.892 14.8394 34.8283 14.8394C34.635 14.8394 34.4478 14.7678 34.2998 14.6378C33.1727 13.6442 31.7227 13.097 30.2173 13.097C29.5659 13.097 28.9082 13.1986 28.2626 13.3989C26.864 13.8326 25.6901 14.7708 24.9438 15.9913V36.0574C25.5514 35.8592 26.1443 35.6274 26.7209 35.3602C28.7468 34.4218 30.537 33.0804 32.0418 31.3732C33.4439 29.7827 34.54 27.9469 35.3001 25.9163C36.0245 23.9811 36.4076 21.9156 36.4076 19.9442V19.8501C36.4076 19.5336 36.5506 19.2357 36.8005 19.0327C37.7484 18.263 38.574 17.3571 39.2538 16.3401C39.4332 16.072 39.15 15.7353 38.8547 15.8663Z" fill="#D1D1D1"/>
<path d="M38.8547 15.8663C38.2186 16.1484 37.5587 16.3709 36.8812 16.5318C37.6277 15.8227 38.1888 14.9355 38.5053 13.9455C38.5958 13.663 38.2886 13.4183 38.0335 13.5697C37.0911 14.1288 36.076 14.5478 35.0165 14.816C34.9551 14.8316 34.8919 14.8394 34.8281 14.8394C34.6348 14.8394 34.4476 14.7678 34.2997 14.6378C33.1725 13.6442 31.7225 13.097 30.2172 13.097C29.5656 13.097 28.9081 13.1986 28.2625 13.3989C26.2618 14.0193 24.718 15.6698 24.2335 17.7058C24.0518 18.4693 24.0028 19.234 24.0874 19.9777C24.0968 20.0633 24.0567 20.1228 24.0318 20.1508C23.9879 20.1998 23.9259 20.228 23.8614 20.228C23.8544 20.228 23.8467 20.2277 23.8395 20.227C19.46 19.82 15.5107 17.7102 12.7195 14.2859C12.5774 14.1112 12.3042 14.1327 12.1907 14.3271C11.6442 15.2652 11.3553 16.3378 11.3553 17.4293C11.3553 19.1018 12.0276 20.6783 13.1949 21.8276C12.704 21.7111 12.2288 21.5278 11.7873 21.2825C11.5736 21.1639 11.311 21.3167 11.308 21.5609C11.2777 24.0458 12.7326 26.2569 14.912 27.2525C14.868 27.2535 14.8241 27.2539 14.7801 27.2539C14.4347 27.2539 14.0847 27.2209 13.7406 27.1548C13.5001 27.1092 13.298 27.3371 13.3726 27.5701C14.0802 29.7789 15.9817 31.4068 18.2575 31.7762C16.3689 33.044 14.1693 33.7127 11.8803 33.7127L11.1669 33.7124C10.9466 33.7124 10.7606 33.8558 10.705 34.0688C10.6498 34.2783 10.7512 34.4998 10.9389 34.6089C13.5182 36.11 16.4605 36.9033 19.4485 36.9033C22.0641 36.9033 24.5108 36.3845 26.7206 35.3605C28.7465 34.4222 30.5366 33.0807 32.0415 31.3735C33.4435 29.7831 34.5396 27.9472 35.2998 25.9166C36.0242 23.9814 36.4072 21.9159 36.4072 19.9445V19.8504C36.4072 19.5339 36.5503 19.236 36.8002 19.033C37.748 18.2633 38.5736 17.3574 39.2535 16.3404C39.4332 16.072 39.15 15.7353 38.8547 15.8663Z" fill="white"/>
</svg>
