<svg width="35" height="36" viewBox="0 0 35 36" fill="none" xmlns="http://www.w3.org/2000/svg">
<g clip-path="url(#clip0)">
<path d="M17.5 0.0895025C13.2155 0.0895025 9.05045 1.66737 5.80419 4.34619L1.86687 0.408868C1.55338 0.0967122 1.08367 0.00325257 0.675389 0.172548C0.267104 0.341577 7.62939e-05 0.739715 7.62939e-05 1.18325V10.6622C7.62939e-05 11.2659 0.490072 11.7559 1.09382 11.7559H10.573C11.0163 11.7559 11.4144 11.4892 11.5837 11.0809C11.7528 10.6726 11.6596 10.2029 11.3458 9.88942L7.87659 6.41859C10.573 4.27035 13.9854 3.00598 17.5 3.00598C25.5413 3.00598 32.0835 9.54816 32.0835 17.5894C32.0835 25.6304 25.5413 32.1726 17.5 32.1726C13.6078 32.1726 9.94606 30.6546 7.19113 27.8983C6.62103 27.3279 5.69925 27.3279 5.12914 27.8983C4.55877 28.4684 4.55877 29.3902 5.12914 29.9603C8.43521 33.2677 12.8292 35.0894 17.5 35.0894C27.1498 35.0894 34.9999 27.239 34.9999 17.5894C34.9999 7.93958 27.1498 0.0895025 17.5 0.0895025Z" fill="#F9AB55"/>
</g>
<defs>
<clipPath id="clip0">
<rect width="35" height="35" fill="white" transform="translate(0 0.0892334)"/>
</clipPath>
</defs>
</svg>
