<svg width="30" height="31" viewBox="0 0 30 31" fill="none" xmlns="http://www.w3.org/2000/svg">
<path d="M28.75 16.4496H1.25C0.559998 16.4496 0 15.8896 0 15.1996C0 14.5096 0.559998 13.9496 1.25 13.9496H28.75C29.44 13.9496 30 14.5096 30 15.1996C30 15.8896 29.44 16.4496 28.75 16.4496Z" fill="white"/>
<path d="M28.75 6.86615H1.25C0.559998 6.86615 0 6.30615 0 5.61615C0 4.92615 0.559998 4.36615 1.25 4.36615H28.75C29.44 4.36615 30 4.92615 30 5.61615C30 6.30615 29.44 6.86615 28.75 6.86615Z" fill="white"/>
<path d="M28.75 26.0327H1.25C0.559998 26.0327 0 25.4727 0 24.7827C0 24.0927 0.559998 23.5327 1.25 23.5327H28.75C29.44 23.5327 30 24.0927 30 24.7827C30 25.4727 29.44 26.0327 28.75 26.0327Z" fill="white"/>
</svg>
